<?xml version="1.0" encoding="UTF-8" standalone="no"?>
<!-- Created with Inkscape (http://www.inkscape.org/) -->

<svg
   xmlns:dc="http://purl.org/dc/elements/1.1/"
   xmlns:cc="http://creativecommons.org/ns#"
   xmlns:rdf="http://www.w3.org/1999/02/22-rdf-syntax-ns#"
   xmlns:svg="http://www.w3.org/2000/svg"
   xmlns="http://www.w3.org/2000/svg"
   version="1.1"
   width="80"
   height="80"
   viewBox="0 0 80 80"
   id="svg2"
   xml:space="preserve"><metadata
     id="metadata8"><rdf:RDF><cc:Work
         rdf:about=""><dc:format>image/svg+xml</dc:format><dc:type
           rdf:resource="http://purl.org/dc/dcmitype/StillImage" /><dc:title></dc:title></cc:Work></rdf:RDF></metadata><defs
     id="defs6" /><path
     d="m 58.56175,64.639195 -9.30125,0 0,-4.6875 2.055125,0 c 0.298875,0.01512 0.547375,-0.2285 0.5425,-0.53125 l 0,-4.473625 c 0,-0.287625 -0.234875,-0.5225 -0.527375,-0.5225 l -2.2265,0 -5.307125,-12.11375 c 6.826125,-1.444875 12.27975,-6.567375 14.145,-13.296375 C 58.030495,28.68807 57.7805,28.36032 57.43425,28.36032 l -7.7485,0 -9.180125,-9.179625 0,-1.1865 c 2.084875,-0.606 1.649875,-3.67725 -0.5225,-3.67725 -2.1675,0 -2.6025,3.07125 -0.517625,3.67725 l 0,1.1865 -9.169875,9.179625 -7.773875,0 c -0.34625,-0.0049 -0.599625,0.32275 -0.5025,0.653875 1.855,6.73875 7.318875,11.86525 14.15525,13.296375 l -5.307625,12.11375 -2.221125,0 c -0.289125,0 -0.5225,0.234875 -0.5225,0.5225 l 0,4.473625 c 0,0.287625 0.233375,0.526375 0.5225,0.526375 l 2.054625,0 0,4.6875 -9.291,0 c -0.317375,-0.044 -0.596125,0.201125 -0.596125,0.5175 0,0.3175 0.27875,0.5625 0.596125,0.5225 l 37.152375,0 c 0.32275,0.05863 0.625,-0.185 0.625,-0.5175 0,-0.32625 -0.30225,-0.57625 -0.625,-0.517625 z m -18.5835,-43.71975 2.73,7.440875 -5.455125,0 2.725125,-7.440875 z m 3.837375,7.451125 -2.543875,-6.928625 6.928625,6.928625 -4.38475,0 z m -4.6875,-12.1875 c 0,-0.7675 0.92875,-1.15225 1.47025,-0.61125 0.5425,0.5425 0.161125,1.475125 -0.610375,1.475125 -0.48875,0.0049 -0.888625,-0.4 -0.868625,-0.894125 l 0.0088,0.03025 z m -0.433625,5.277375 -2.539,6.92875 -4.395,0 6.934,-6.92875 z m 18.066,7.96875 c -0.0635,0.215375 -0.141125,0.44 -0.224625,0.65525 l -33.09525,0 c -0.07375,-0.21525 -0.1475,-0.430125 -0.225125,-0.65525 l 33.545,0 z m -32.904875,1.631375 32.25,0 c -2.29875,5.317375 -7.055125,9.169875 -12.733875,10.3125 l -0.2685,-0.609875 c -1.191375,-2.715375 -5.044,-2.715375 -6.235375,0 L 36.5945,41.37307 C 30.910875,40.24557 26.14575,36.388195 23.855625,31.06057 z m 13.94,10.087375 c 0.82525,-1.888625 3.506375,-1.888625 4.331,0 L 47.947,54.42432 l -7.5,0 0,-10.165 c 2.089875,-0.601125 1.649875,-3.67725 -0.517625,-3.67725 -2.172375,0 -2.607375,3.076125 -0.522375,3.67725 l 0,10.165 -7.5,0 5.888625,-13.276375 z m 2.1675,2.149 c -0.771,0 -1.15625,-0.932625 -0.609875,-1.475125 0.5425,-0.541 1.46975,-0.15625 1.46975,0.61125 0,0.46875 -0.376,0.853625 -0.84475,0.863875 l -0.01513,0 z m -10.79,12.138625 21.625,0 0,3.432625 -21.625,0 0,-3.432625 z m 19.04725,4.5025 0,1.65525 -16.469625,0 0,-1.65525 16.469625,0 z m -16.479875,4.6875 0,-1.987375 16.479875,0 0,2.001 -16.469625,0 -0.01025,-0.01363 z"
     id="path18"
     fill="#8c8ccd"
     style="fill-opacity:1;fill-rule:nonzero;stroke:none" /></svg>
